<?xml version="1.0" encoding="UTF-8" standalone="no"?>
<!DOCTYPE svg PUBLIC "-//W3C//DTD SVG 1.1//EN"
 "http://www.w3.org/Graphics/SVG/1.1/DTD/svg11.dtd">
<!-- Generated by graphviz version 2.38.0 (20140413.2041)
 -->
<!-- Title: G Pages: 1 -->
<svg width="436pt" height="260pt"
 viewBox="0.00 0.00 435.73 260.00" xmlns="http://www.w3.org/2000/svg" xmlns:xlink="http://www.w3.org/1999/xlink">
<g id="graph0" class="graph" transform="scale(1 1) rotate(0) translate(4 256)">
<title>G</title>
<polygon fill="white" stroke="none" points="-4,4 -4,-256 431.732,-256 431.732,4 -4,4"/>
<!-- from_nhit -->
<g id="node1" class="node"><title>from_nhit</title>
<g id="a_node1"><a xlink:href="/transfer_college?college=nhit" xlink:title="Concord&#39;s Community College">
<ellipse fill="lightyellow" stroke="lightgreen" cx="235.139" cy="-234" rx="124.278" ry="18"/>
<text text-anchor="middle" x="235.139" y="-230.3" font-family="Times New Roman,serif" font-size="14.00">Concord&#39;s Community College</text>
</a>
</g>
</g>
<!-- nhit_computer_science -->
<g id="node5" class="node"><title>nhit_computer_science</title>
<g id="a_node5"><a xlink:href="https://manchester.unh.edu/sites/default/files/media/nhti_cis_pathways_0.pdf" xlink:title=" Computer Information System">
<ellipse fill="lightyellow" stroke="lightgreen" cx="124.139" cy="-162" rx="124.278" ry="18"/>
<text text-anchor="middle" x="124.139" y="-158.3" font-family="Times New Roman,serif" font-size="14.00"> Computer Information System</text>
</a>
</g>
</g>
<!-- from_nhit&#45;&gt;nhit_computer_science -->
<g id="edge1" class="edge"><title>from_nhit&#45;&gt;nhit_computer_science</title>
<path fill="none" stroke="black" d="M208.552,-216.233C193.724,-206.882 175.076,-195.123 159.081,-185.036"/>
<polygon fill="black" stroke="black" points="160.835,-182.004 150.509,-179.63 157.101,-187.925 160.835,-182.004"/>
</g>
<!-- nhit_cs -->
<g id="node6" class="node"><title>nhit_cs</title>
<g id="a_node6"><a xlink:href="https://manchester.unh.edu/sites/default/files/migrated/Pathways/nhti_cs_pathways.pdf" xlink:title=" Computer Science">
<ellipse fill="lightyellow" stroke="lightgreen" cx="347.139" cy="-162" rx="80.6858" ry="18"/>
<text text-anchor="middle" x="347.139" y="-158.3" font-family="Times New Roman,serif" font-size="14.00"> Computer Science</text>
</a>
</g>
</g>
<!-- from_nhit&#45;&gt;nhit_cs -->
<g id="edge2" class="edge"><title>from_nhit&#45;&gt;nhit_cs</title>
<path fill="none" stroke="black" d="M261.681,-216.411C276.855,-206.928 296.061,-194.924 312.421,-184.699"/>
<polygon fill="black" stroke="black" points="314.548,-187.497 321.173,-179.228 310.838,-181.561 314.548,-187.497"/>
</g>
<!-- transfer -->
<g id="node2" class="node"><title>transfer</title>
<g id="a_node2"><a xlink:href="https://www.nhtransfer.org/sites/nhtransfer.org/files/media/nhtransferapplication.pdf" xlink:title="Transfer and Apply">
<ellipse fill="lightyellow" stroke="lightgreen" cx="139.139" cy="-18" rx="81.7856" ry="18"/>
<text text-anchor="middle" x="139.139" y="-14.3" font-family="Times New Roman,serif" font-size="14.00">Transfer and Apply</text>
</a>
</g>
</g>
<!-- nhit_compare_tuition_cost -->
<g id="node3" class="node"><title>nhit_compare_tuition_cost</title>
<g id="a_node3"><a xlink:href="https://manchester.unh.edu/costs" xlink:title="Compare Tuition Cost">
<ellipse fill="lightyellow" stroke="lightgreen" cx="332.139" cy="-18" rx="92.8835" ry="18"/>
<text text-anchor="middle" x="332.139" y="-14.3" font-family="Times New Roman,serif" font-size="14.00">Compare Tuition Cost</text>
</a>
</g>
</g>
<!-- nhit_list_of_unh_programs -->
<g id="node4" class="node"><title>nhit_list_of_unh_programs</title>
<g id="a_node4"><a xlink:href="https://manchester.unh.edu/academics/degree-programs/information-technology" xlink:title="UNH MS IT">
<ellipse fill="lightyellow" stroke="lightgreen" cx="235.139" cy="-90" rx="56.59" ry="18"/>
<text text-anchor="middle" x="235.139" y="-86.3" font-family="Times New Roman,serif" font-size="14.00">UNH MS IT</text>
</a>
</g>
</g>
<!-- nhit_list_of_unh_programs&#45;&gt;transfer -->
<g id="edge5" class="edge"><title>nhit_list_of_unh_programs&#45;&gt;transfer</title>
<path fill="none" stroke="black" d="M213.355,-73.1159C200.619,-63.8294 184.332,-51.9529 170.261,-41.6932"/>
<polygon fill="black" stroke="black" points="171.981,-38.6153 161.838,-35.5516 167.856,-44.2714 171.981,-38.6153"/>
</g>
<!-- nhit_list_of_unh_programs&#45;&gt;nhit_compare_tuition_cost -->
<g id="edge6" class="edge"><title>nhit_list_of_unh_programs&#45;&gt;nhit_compare_tuition_cost</title>
<path fill="none" stroke="black" d="M257.15,-73.1159C270.018,-63.8294 286.476,-51.9529 300.693,-41.6932"/>
<polygon fill="black" stroke="black" points="303.142,-44.2417 309.203,-35.5516 299.046,-38.5653 303.142,-44.2417"/>
</g>
<!-- nhit_computer_science&#45;&gt;nhit_list_of_unh_programs -->
<g id="edge3" class="edge"><title>nhit_computer_science&#45;&gt;nhit_list_of_unh_programs</title>
<path fill="none" stroke="black" d="M150.726,-144.233C166.095,-134.541 185.568,-122.261 201.937,-111.938"/>
<polygon fill="black" stroke="black" points="204.074,-114.728 210.666,-106.434 200.34,-108.807 204.074,-114.728"/>
</g>
<!-- nhit_cs&#45;&gt;nhit_list_of_unh_programs -->
<g id="edge4" class="edge"><title>nhit_cs&#45;&gt;nhit_list_of_unh_programs</title>
<path fill="none" stroke="black" d="M321.162,-144.765C305.424,-134.928 285.194,-122.284 268.307,-111.73"/>
<polygon fill="black" stroke="black" points="270.157,-108.759 259.822,-106.427 266.447,-114.695 270.157,-108.759"/>
</g>
</g>
</svg>
