<?xml version="1.0" encoding="UTF-8" standalone="no"?>
<!DOCTYPE svg PUBLIC "-//W3C//DTD SVG 1.1//EN"
 "http://www.w3.org/Graphics/SVG/1.1/DTD/svg11.dtd">
<!-- Generated by graphviz version 2.38.0 (20140413.2041)
 -->
<!-- Title: G Pages: 1 -->
<svg width="1372pt" height="423pt"
 viewBox="0.00 0.00 1371.73 423.00" xmlns="http://www.w3.org/2000/svg" xmlns:xlink="http://www.w3.org/1999/xlink">
<g id="graph0" class="graph" transform="scale(1 1) rotate(0) translate(4 419)">
<title>G</title>
<polygon fill="white" stroke="none" points="-4,4 -4,-419 1367.73,-419 1367.73,4 -4,4"/>
<!-- transfer -->
<g id="node1" class="node"><title>transfer</title>
<ellipse fill="none" stroke="black" cx="656.993" cy="-397" rx="118.879" ry="18"/>
<text text-anchor="middle" x="656.993" y="-393.3" font-family="Times New Roman,serif" font-size="14.00">SELECT YOUR COLLEGE </text>
</g>
<!-- from_nhit -->
<g id="node2" class="node"><title>from_nhit</title>
<g id="a_node2"><a xlink:href="/transfer_college?college=nhit" xlink:title="Concord&#39;s &#160;Community College">
<ellipse fill="lightyellow" stroke="lightgreen" cx="297.993" cy="-310" rx="126.178" ry="18"/>
<text text-anchor="middle" x="297.993" y="-306.3" font-family="Times New Roman,serif" font-size="14.00">Concord&#39;s &#160;Community College</text>
</a>
</g>
</g>
<!-- transfer&#45;&gt;from_nhit -->
<g id="edge1" class="edge"><title>transfer&#45;&gt;from_nhit</title>
<path fill="none" stroke="black" d="M595.687,-381.485C533.208,-366.691 436.337,-343.756 370.186,-328.093"/>
<polygon fill="black" stroke="black" points="370.788,-324.639 360.251,-325.741 369.175,-331.451 370.788,-324.639"/>
<text text-anchor="middle" x="512.993" y="-349.8" font-family="Times New Roman,serif" font-size="14.00">from</text>
</g>
<!-- from_nashua -->
<g id="node3" class="node"><title>from_nashua</title>
<g id="a_node3"><a xlink:href="/transfer_college?college=nashua" xlink:title="Nashua Community College">
<ellipse fill="lightyellow" stroke="lightgreen" cx="656.993" cy="-310" rx="112.38" ry="18"/>
<text text-anchor="middle" x="656.993" y="-306.3" font-family="Times New Roman,serif" font-size="14.00">Nashua Community College</text>
</a>
</g>
</g>
<!-- transfer&#45;&gt;from_nashua -->
<g id="edge2" class="edge"><title>transfer&#45;&gt;from_nashua</title>
<path fill="none" stroke="black" d="M656.993,-378.799C656.993,-367.163 656.993,-351.548 656.993,-338.237"/>
<polygon fill="black" stroke="black" points="660.493,-338.175 656.993,-328.175 653.493,-338.175 660.493,-338.175"/>
<text text-anchor="middle" x="670.993" y="-349.8" font-family="Times New Roman,serif" font-size="14.00">from</text>
</g>
<!-- from_mcc -->
<g id="node4" class="node"><title>from_mcc</title>
<g id="a_node4"><a xlink:href="/transfer_college?college=mcc" xlink:title="Manchester Community College">
<ellipse fill="lightyellow" stroke="lightgreen" cx="914.993" cy="-310" rx="127.277" ry="18"/>
<text text-anchor="middle" x="914.993" y="-306.3" font-family="Times New Roman,serif" font-size="14.00">Manchester Community College</text>
</a>
</g>
</g>
<!-- transfer&#45;&gt;from_mcc -->
<g id="edge3" class="edge"><title>transfer&#45;&gt;from_mcc</title>
<path fill="none" stroke="black" d="M704.314,-380.41C747.503,-366.181 811.441,-345.116 857.545,-329.927"/>
<polygon fill="black" stroke="black" points="858.696,-333.233 867.098,-326.779 856.505,-326.584 858.696,-333.233"/>
<text text-anchor="middle" x="815.993" y="-349.8" font-family="Times New Roman,serif" font-size="14.00">from</text>
</g>
<!-- nhit_cs -->
<g id="node7" class="node"><title>nhit_cs</title>
<g id="a_node7"><a xlink:href="https://manchester.unh.edu/sites/default/files/migrated/Pathways/nhti_cs_pathways.pdf" xlink:title="Computer Science">
<ellipse fill="lightyellow" stroke="lightgreen" cx="77.9931" cy="-237" rx="77.9862" ry="18"/>
<text text-anchor="middle" x="77.9931" y="-233.3" font-family="Times New Roman,serif" font-size="14.00">Computer Science</text>
</a>
</g>
</g>
<!-- from_nhit&#45;&gt;nhit_cs -->
<g id="edge6" class="edge"><title>from_nhit&#45;&gt;nhit_cs</title>
<path fill="none" stroke="black" d="M249.441,-293.331C214.51,-282.058 167.408,-266.857 131.413,-255.24"/>
<polygon fill="black" stroke="black" points="132.166,-251.805 121.574,-252.065 130.016,-258.467 132.166,-251.805"/>
</g>
<!-- nhit_computer_science -->
<g id="node10" class="node"><title>nhit_computer_science</title>
<g id="a_node10"><a xlink:href="https://manchester.unh.edu/sites/default/files/media/nhti_cis_pathways_0.pdf" xlink:title=" Computer Information System">
<ellipse fill="lightyellow" stroke="lightgreen" cx="297.993" cy="-237" rx="124.278" ry="18"/>
<text text-anchor="middle" x="297.993" y="-233.3" font-family="Times New Roman,serif" font-size="14.00"> Computer Information System</text>
</a>
</g>
</g>
<!-- from_nhit&#45;&gt;nhit_computer_science -->
<g id="edge5" class="edge"><title>from_nhit&#45;&gt;nhit_computer_science</title>
<path fill="none" stroke="black" d="M297.993,-291.813C297.993,-283.789 297.993,-274.047 297.993,-265.069"/>
<polygon fill="black" stroke="black" points="301.493,-265.029 297.993,-255.029 294.493,-265.029 301.493,-265.029"/>
</g>
<!-- nashua_cyber_security -->
<g id="node11" class="node"><title>nashua_cyber_security</title>
<g id="a_node11"><a xlink:href="https://manchester.unh.edu/sites/default/files/media/ncc_comp_net_cis_pathways_0.pdf " xlink:title="Networking">
<ellipse fill="lightblue" stroke="lightgreen" cx="492.993" cy="-237" rx="52.7911" ry="18"/>
<text text-anchor="middle" x="492.993" y="-233.3" font-family="Times New Roman,serif" font-size="14.00">Networking</text>
</a>
</g>
</g>
<!-- from_nashua&#45;&gt;nashua_cyber_security -->
<g id="edge9" class="edge"><title>from_nashua&#45;&gt;nashua_cyber_security</title>
<path fill="none" stroke="black" d="M619.779,-292.889C594.107,-281.775 559.988,-267.004 533.611,-255.584"/>
<polygon fill="black" stroke="black" points="534.841,-252.303 524.273,-251.542 532.059,-258.727 534.841,-252.303"/>
</g>
<!-- nashua_software_Development -->
<g id="node12" class="node"><title>nashua_software_Development</title>
<g id="a_node12"><a xlink:href="https://manchester.unh.edu/sites/default/files/media/ncc_software_dev_cis_pathways_0.pdf" xlink:title="Software Development">
<ellipse fill="lightblue" stroke="lightgreen" cx="656.993" cy="-237" rx="93.6835" ry="18"/>
<text text-anchor="middle" x="656.993" y="-233.3" font-family="Times New Roman,serif" font-size="14.00">Software Development</text>
</a>
</g>
</g>
<!-- from_nashua&#45;&gt;nashua_software_Development -->
<g id="edge10" class="edge"><title>from_nashua&#45;&gt;nashua_software_Development</title>
<path fill="none" stroke="black" d="M656.993,-291.813C656.993,-283.789 656.993,-274.047 656.993,-265.069"/>
<polygon fill="black" stroke="black" points="660.493,-265.029 656.993,-255.029 653.493,-265.029 660.493,-265.029"/>
</g>
<!-- nashua_web_Application_Development -->
<g id="node13" class="node"><title>nashua_web_Application_Development</title>
<g id="a_node13"><a xlink:href="https://manchester.unh.edu/sites/default/files/media/ncc_web_app_cis_pathways_0.pdf" xlink:title="Web Application Development">
<ellipse fill="lightblue" stroke="lightgreen" cx="890.993" cy="-237" rx="122.678" ry="18"/>
<text text-anchor="middle" x="890.993" y="-233.3" font-family="Times New Roman,serif" font-size="14.00">Web Application Development</text>
</a>
</g>
</g>
<!-- from_nashua&#45;&gt;nashua_web_Application_Development -->
<g id="edge11" class="edge"><title>from_nashua&#45;&gt;nashua_web_Application_Development</title>
<path fill="none" stroke="black" d="M706.905,-293.856C742.884,-282.939 791.646,-268.144 829.945,-256.523"/>
<polygon fill="black" stroke="black" points="831.393,-259.741 839.946,-253.489 829.36,-253.043 831.393,-259.741"/>
</g>
<!-- mcc_computer_science -->
<g id="node14" class="node"><title>mcc_computer_science</title>
<g id="a_node14"><a xlink:href="https://manchester.unh.edu/sites/default/files/media/mcc_cis_pathways.pdf" xlink:title="Manchester Computer Information System">
<ellipse fill="lightyellow" stroke="lightgreen" cx="1197.99" cy="-237" rx="165.971" ry="18"/>
<text text-anchor="middle" x="1197.99" y="-233.3" font-family="Times New Roman,serif" font-size="14.00">Manchester Computer Information System</text>
</a>
</g>
</g>
<!-- from_mcc&#45;&gt;mcc_computer_science -->
<g id="edge15" class="edge"><title>from_mcc&#45;&gt;mcc_computer_science</title>
<path fill="none" stroke="black" d="M974.664,-294.029C1018.72,-282.976 1078.9,-267.878 1125.69,-256.139"/>
<polygon fill="black" stroke="black" points="1126.61,-259.516 1135.46,-253.688 1124.91,-252.727 1126.61,-259.516"/>
</g>
<!-- transfer_to -->
<g id="node5" class="node"><title>transfer_to</title>
<g id="a_node5"><a xlink:href="https://www.nhtransfer.org/sites/nhtransfer.org/files/media/nhtransferapplication.pdf" xlink:title="Transfer and Apply">
<ellipse fill="lightyellow" stroke="lightgreen" cx="413.993" cy="-18" rx="81.7856" ry="18"/>
<text text-anchor="middle" x="413.993" y="-14.3" font-family="Times New Roman,serif" font-size="14.00">Transfer and Apply</text>
</a>
</g>
</g>
<!-- unh -->
<g id="node6" class="node"><title>unh</title>
<g id="a_node6"><a xlink:href="https://manchester.unh.edu/academics/degree-programs/information-technology" xlink:title="UNH&#45;Manchester MS IT ">
<ellipse fill="lightyellow" stroke="lightgreen" cx="413.993" cy="-91" rx="103.982" ry="18"/>
<text text-anchor="middle" x="413.993" y="-87.3" font-family="Times New Roman,serif" font-size="14.00">UNH&#45;Manchester MS IT </text>
</a>
</g>
</g>
<!-- unh&#45;&gt;transfer_to -->
<g id="edge18" class="edge"><title>unh&#45;&gt;transfer_to</title>
<path fill="none" stroke="black" d="M413.993,-72.8129C413.993,-64.7895 413.993,-55.0475 413.993,-46.0691"/>
<polygon fill="black" stroke="black" points="417.493,-46.0288 413.993,-36.0288 410.493,-46.0289 417.493,-46.0288"/>
</g>
<!-- unh_programs -->
<g id="node8" class="node"><title>unh_programs</title>
<ellipse fill="none" stroke="black" cx="574.993" cy="-164" rx="67.6881" ry="18"/>
<text text-anchor="middle" x="574.993" y="-160.3" font-family="Times New Roman,serif" font-size="14.00">UNH Programs</text>
</g>
<!-- nhit_cs&#45;&gt;unh_programs -->
<g id="edge8" class="edge"><title>nhit_cs&#45;&gt;unh_programs</title>
<path fill="none" stroke="black" d="M134.528,-224.425C144.653,-222.503 155.121,-220.613 164.993,-219 283.516,-199.634 422.198,-182.521 504.092,-172.985"/>
<polygon fill="black" stroke="black" points="504.507,-176.46 514.038,-171.831 503.701,-169.507 504.507,-176.46"/>
</g>
<!-- unh_programs&#45;&gt;unh -->
<g id="edge17" class="edge"><title>unh_programs&#45;&gt;unh</title>
<path fill="none" stroke="black" d="M541.634,-148.289C517.845,-137.798 485.575,-123.567 459.435,-112.04"/>
<polygon fill="black" stroke="black" points="460.671,-108.76 450.109,-107.927 457.846,-115.164 460.671,-108.76"/>
</g>
<!-- nhit_compare_tuition_cost -->
<g id="node9" class="node"><title>nhit_compare_tuition_cost</title>
<g id="a_node9"><a xlink:href="https://manchester.unh.edu/costs" xlink:title="Compare Tuition Cost">
<ellipse fill="lightyellow" stroke="lightgreen" cx="628.993" cy="-91" rx="92.8835" ry="18"/>
<text text-anchor="middle" x="628.993" y="-87.3" font-family="Times New Roman,serif" font-size="14.00">Compare Tuition Cost</text>
</a>
</g>
</g>
<!-- unh_programs&#45;&gt;nhit_compare_tuition_cost -->
<g id="edge4" class="edge"><title>unh_programs&#45;&gt;nhit_compare_tuition_cost</title>
<path fill="none" stroke="black" d="M587.79,-146.174C594.352,-137.547 602.477,-126.863 609.774,-117.27"/>
<polygon fill="black" stroke="black" points="612.645,-119.277 615.913,-109.198 607.073,-115.039 612.645,-119.277"/>
</g>
<!-- nhit_computer_science&#45;&gt;unh_programs -->
<g id="edge7" class="edge"><title>nhit_computer_science&#45;&gt;unh_programs</title>
<path fill="none" stroke="black" d="M356.399,-221.029C404.115,-208.799 471.157,-191.615 518.38,-179.511"/>
<polygon fill="black" stroke="black" points="519.324,-182.882 528.142,-177.009 517.586,-176.101 519.324,-182.882"/>
</g>
<!-- nashua_cyber_security&#45;&gt;unh_programs -->
<g id="edge12" class="edge"><title>nashua_cyber_security&#45;&gt;unh_programs</title>
<path fill="none" stroke="black" d="M511.6,-219.889C522.531,-210.424 536.525,-198.308 548.583,-187.867"/>
<polygon fill="black" stroke="black" points="550.907,-190.485 556.176,-181.293 546.325,-185.193 550.907,-190.485"/>
</g>
<!-- nashua_software_Development&#45;&gt;unh_programs -->
<g id="edge13" class="edge"><title>nashua_software_Development&#45;&gt;unh_programs</title>
<path fill="none" stroke="black" d="M637.56,-219.174C626.863,-209.912 613.427,-198.278 601.751,-188.168"/>
<polygon fill="black" stroke="black" points="603.855,-185.36 594.004,-181.46 599.272,-190.652 603.855,-185.36"/>
</g>
<!-- nashua_web_Application_Development&#45;&gt;unh_programs -->
<g id="edge14" class="edge"><title>nashua_web_Application_Development&#45;&gt;unh_programs</title>
<path fill="none" stroke="black" d="M826.665,-221.547C770.604,-208.95 689.918,-190.822 635.13,-178.512"/>
<polygon fill="black" stroke="black" points="635.737,-175.061 625.213,-176.284 634.202,-181.891 635.737,-175.061"/>
</g>
<!-- mcc_computer_science&#45;&gt;unh_programs -->
<g id="edge16" class="edge"><title>mcc_computer_science&#45;&gt;unh_programs</title>
<path fill="none" stroke="black" d="M1088.05,-223.47C960.47,-208.931 753.845,-185.383 645.86,-173.076"/>
<polygon fill="black" stroke="black" points="646.055,-169.576 635.723,-171.921 645.263,-176.531 646.055,-169.576"/>
</g>
</g>
</svg>
