<?xml version="1.0" encoding="UTF-8" standalone="no"?>
<!DOCTYPE svg PUBLIC "-//W3C//DTD SVG 1.1//EN"
 "http://www.w3.org/Graphics/SVG/1.1/DTD/svg11.dtd">
<!-- Generated by graphviz version 2.38.0 (20140413.2041)
 -->
<!-- Title: G Pages: 1 -->
<svg width="1274pt" height="423pt"
 viewBox="0.00 0.00 1274.22 423.00" xmlns="http://www.w3.org/2000/svg" xmlns:xlink="http://www.w3.org/1999/xlink">
<g id="graph0" class="graph" transform="scale(1 1) rotate(0) translate(4 419)">
<title>G</title>
<polygon fill="white" stroke="none" points="-4,4 -4,-419 1270.22,-419 1270.22,4 -4,4"/>
<!-- transfer -->
<g id="node1" class="node"><title>transfer</title>
<ellipse fill="none" stroke="black" cx="559.486" cy="-397" rx="118.879" ry="18"/>
<text text-anchor="middle" x="559.486" y="-393.3" font-family="Times New Roman,serif" font-size="14.00">SELECT YOUR COLLEGE </text>
</g>
<!-- from_nhit -->
<g id="node2" class="node"><title>from_nhit</title>
<g id="a_node2"><a xlink:href="/transfer_college?college=nhit" xlink:title="Concord&#39;s &#160;Community College">
<ellipse fill="lightyellow" stroke="lightgreen" cx="267.486" cy="-310" rx="126.178" ry="18"/>
<text text-anchor="middle" x="267.486" y="-306.3" font-family="Times New Roman,serif" font-size="14.00">Concord&#39;s &#160;Community College</text>
</a>
</g>
</g>
<!-- transfer&#45;&gt;from_nhit -->
<g id="edge1" class="edge"><title>transfer&#45;&gt;from_nhit</title>
<path fill="none" stroke="black" d="M507.282,-380.804C457.658,-366.359 382.965,-344.616 330.149,-329.241"/>
<polygon fill="black" stroke="black" points="330.802,-325.786 320.222,-326.351 328.845,-332.507 330.802,-325.786"/>
<text text-anchor="middle" x="445.486" y="-349.8" font-family="Times New Roman,serif" font-size="14.00">from</text>
</g>
<!-- from_nashua -->
<g id="node3" class="node"><title>from_nashua</title>
<g id="a_node3"><a xlink:href="/transfer_college?college=nashua" xlink:title="Nashua Community College">
<ellipse fill="lightyellow" stroke="lightgreen" cx="559.486" cy="-310" rx="112.38" ry="18"/>
<text text-anchor="middle" x="559.486" y="-306.3" font-family="Times New Roman,serif" font-size="14.00">Nashua Community College</text>
</a>
</g>
</g>
<!-- transfer&#45;&gt;from_nashua -->
<g id="edge2" class="edge"><title>transfer&#45;&gt;from_nashua</title>
<path fill="none" stroke="black" d="M559.486,-378.799C559.486,-367.163 559.486,-351.548 559.486,-338.237"/>
<polygon fill="black" stroke="black" points="562.986,-338.175 559.486,-328.175 555.986,-338.175 562.986,-338.175"/>
<text text-anchor="middle" x="573.486" y="-349.8" font-family="Times New Roman,serif" font-size="14.00">from</text>
</g>
<!-- from_mcc -->
<g id="node4" class="node"><title>from_mcc</title>
<g id="a_node4"><a xlink:href="/transfer_college?college=mcc" xlink:title="Manchester Community College">
<ellipse fill="lightyellow" stroke="lightgreen" cx="817.486" cy="-310" rx="127.277" ry="18"/>
<text text-anchor="middle" x="817.486" y="-306.3" font-family="Times New Roman,serif" font-size="14.00">Manchester Community College</text>
</a>
</g>
</g>
<!-- transfer&#45;&gt;from_mcc -->
<g id="edge3" class="edge"><title>transfer&#45;&gt;from_mcc</title>
<path fill="none" stroke="black" d="M606.807,-380.41C649.995,-366.181 713.934,-345.116 760.037,-329.927"/>
<polygon fill="black" stroke="black" points="761.188,-333.233 769.591,-326.779 758.998,-326.584 761.188,-333.233"/>
<text text-anchor="middle" x="718.486" y="-349.8" font-family="Times New Roman,serif" font-size="14.00">from</text>
</g>
<!-- nhit_computer_science -->
<g id="node9" class="node"><title>nhit_computer_science</title>
<g id="a_node9"><a xlink:href="https://manchester.unh.edu/sites/default/files/media/nhti_cis_pathways_0.pdf" xlink:title="Concord&#39;s Computer Information System">
<ellipse fill="lightyellow" stroke="lightgreen" cx="162.486" cy="-237" rx="162.471" ry="18"/>
<text text-anchor="middle" x="162.486" y="-233.3" font-family="Times New Roman,serif" font-size="14.00">Concord&#39;s Computer Information System</text>
</a>
</g>
</g>
<!-- from_nhit&#45;&gt;nhit_computer_science -->
<g id="edge5" class="edge"><title>from_nhit&#45;&gt;nhit_computer_science</title>
<path fill="none" stroke="black" d="M242.602,-292.174C228.712,-282.781 211.216,-270.951 196.12,-260.743"/>
<polygon fill="black" stroke="black" points="197.799,-257.653 187.554,-254.951 193.878,-263.452 197.799,-257.653"/>
</g>
<!-- nashua_cyber_security -->
<g id="node10" class="node"><title>nashua_cyber_security</title>
<g id="a_node10"><a xlink:href="https://manchester.unh.edu/sites/default/files/media/ncc_comp_net_cis_pathways_0.pdf " xlink:title="Networking">
<ellipse fill="lightblue" stroke="lightgreen" cx="395.486" cy="-237" rx="52.7911" ry="18"/>
<text text-anchor="middle" x="395.486" y="-233.3" font-family="Times New Roman,serif" font-size="14.00">Networking</text>
</a>
</g>
</g>
<!-- from_nashua&#45;&gt;nashua_cyber_security -->
<g id="edge7" class="edge"><title>from_nashua&#45;&gt;nashua_cyber_security</title>
<path fill="none" stroke="black" d="M522.271,-292.889C496.6,-281.775 462.48,-267.004 436.103,-255.584"/>
<polygon fill="black" stroke="black" points="437.333,-252.303 426.766,-251.542 434.552,-258.727 437.333,-252.303"/>
</g>
<!-- nashua_software_Development -->
<g id="node11" class="node"><title>nashua_software_Development</title>
<g id="a_node11"><a xlink:href="https://manchester.unh.edu/sites/default/files/media/ncc_software_dev_cis_pathways_0.pdf" xlink:title="Software Development">
<ellipse fill="lightblue" stroke="lightgreen" cx="559.486" cy="-237" rx="93.6835" ry="18"/>
<text text-anchor="middle" x="559.486" y="-233.3" font-family="Times New Roman,serif" font-size="14.00">Software Development</text>
</a>
</g>
</g>
<!-- from_nashua&#45;&gt;nashua_software_Development -->
<g id="edge8" class="edge"><title>from_nashua&#45;&gt;nashua_software_Development</title>
<path fill="none" stroke="black" d="M559.486,-291.813C559.486,-283.789 559.486,-274.047 559.486,-265.069"/>
<polygon fill="black" stroke="black" points="562.986,-265.029 559.486,-255.029 555.986,-265.029 562.986,-265.029"/>
</g>
<!-- nashua_web_Application_Development -->
<g id="node12" class="node"><title>nashua_web_Application_Development</title>
<g id="a_node12"><a xlink:href="https://manchester.unh.edu/sites/default/files/media/ncc_web_app_cis_pathways_0.pdf" xlink:title="Web Application Development">
<ellipse fill="lightblue" stroke="lightgreen" cx="793.486" cy="-237" rx="122.678" ry="18"/>
<text text-anchor="middle" x="793.486" y="-233.3" font-family="Times New Roman,serif" font-size="14.00">Web Application Development</text>
</a>
</g>
</g>
<!-- from_nashua&#45;&gt;nashua_web_Application_Development -->
<g id="edge9" class="edge"><title>from_nashua&#45;&gt;nashua_web_Application_Development</title>
<path fill="none" stroke="black" d="M609.397,-293.856C645.376,-282.939 694.138,-268.144 732.438,-256.523"/>
<polygon fill="black" stroke="black" points="733.885,-259.741 742.438,-253.489 731.853,-253.043 733.885,-259.741"/>
</g>
<!-- mcc_computer_science -->
<g id="node13" class="node"><title>mcc_computer_science</title>
<g id="a_node13"><a xlink:href="https://manchester.unh.edu/sites/default/files/media/mcc_cis_pathways.pdf" xlink:title="Manchester Computer Information System">
<ellipse fill="lightyellow" stroke="lightgreen" cx="1100.49" cy="-237" rx="165.971" ry="18"/>
<text text-anchor="middle" x="1100.49" y="-233.3" font-family="Times New Roman,serif" font-size="14.00">Manchester Computer Information System</text>
</a>
</g>
</g>
<!-- from_mcc&#45;&gt;mcc_computer_science -->
<g id="edge13" class="edge"><title>from_mcc&#45;&gt;mcc_computer_science</title>
<path fill="none" stroke="black" d="M877.157,-294.029C921.213,-282.976 981.395,-267.878 1028.18,-256.139"/>
<polygon fill="black" stroke="black" points="1029.11,-259.516 1037.96,-253.688 1027.4,-252.727 1029.11,-259.516"/>
</g>
<!-- transfer_to -->
<g id="node5" class="node"><title>transfer_to</title>
<g id="a_node5"><a xlink:href="https://www.nhtransfer.org/sites/nhtransfer.org/files/media/nhtransferapplication.pdf" xlink:title="Transfer and Apply">
<ellipse fill="lightyellow" stroke="lightgreen" cx="398.486" cy="-18" rx="81.7856" ry="18"/>
<text text-anchor="middle" x="398.486" y="-14.3" font-family="Times New Roman,serif" font-size="14.00">Transfer and Apply</text>
</a>
</g>
</g>
<!-- unh -->
<g id="node6" class="node"><title>unh</title>
<g id="a_node6"><a xlink:href="https://manchester.unh.edu/academics/degree-programs/information-technology" xlink:title="UNH&#45;Manchester MS IT ">
<ellipse fill="lightyellow" stroke="lightgreen" cx="398.486" cy="-91" rx="103.982" ry="18"/>
<text text-anchor="middle" x="398.486" y="-87.3" font-family="Times New Roman,serif" font-size="14.00">UNH&#45;Manchester MS IT </text>
</a>
</g>
</g>
<!-- unh&#45;&gt;transfer_to -->
<g id="edge16" class="edge"><title>unh&#45;&gt;transfer_to</title>
<path fill="none" stroke="black" d="M398.486,-72.8129C398.486,-64.7895 398.486,-55.0475 398.486,-46.0691"/>
<polygon fill="black" stroke="black" points="401.986,-46.0288 398.486,-36.0288 394.986,-46.0289 401.986,-46.0288"/>
</g>
<!-- unh_programs -->
<g id="node7" class="node"><title>unh_programs</title>
<ellipse fill="none" stroke="black" cx="559.486" cy="-164" rx="67.6881" ry="18"/>
<text text-anchor="middle" x="559.486" y="-160.3" font-family="Times New Roman,serif" font-size="14.00">UNH Programs</text>
</g>
<!-- unh_programs&#45;&gt;unh -->
<g id="edge15" class="edge"><title>unh_programs&#45;&gt;unh</title>
<path fill="none" stroke="black" d="M526.126,-148.289C502.337,-137.798 470.068,-123.567 443.928,-112.04"/>
<polygon fill="black" stroke="black" points="445.164,-108.76 434.601,-107.927 442.339,-115.164 445.164,-108.76"/>
</g>
<!-- nhit_compare_tuition_cost -->
<g id="node8" class="node"><title>nhit_compare_tuition_cost</title>
<g id="a_node8"><a xlink:href="https://manchester.unh.edu/costs" xlink:title="Compare Tuition Cost">
<ellipse fill="lightyellow" stroke="lightgreen" cx="613.486" cy="-91" rx="92.8835" ry="18"/>
<text text-anchor="middle" x="613.486" y="-87.3" font-family="Times New Roman,serif" font-size="14.00">Compare Tuition Cost</text>
</a>
</g>
</g>
<!-- unh_programs&#45;&gt;nhit_compare_tuition_cost -->
<g id="edge4" class="edge"><title>unh_programs&#45;&gt;nhit_compare_tuition_cost</title>
<path fill="none" stroke="black" d="M572.283,-146.174C578.844,-137.547 586.97,-126.863 594.266,-117.27"/>
<polygon fill="black" stroke="black" points="597.137,-119.277 600.405,-109.198 591.566,-115.039 597.137,-119.277"/>
</g>
<!-- nhit_computer_science&#45;&gt;unh_programs -->
<g id="edge6" class="edge"><title>nhit_computer_science&#45;&gt;unh_programs</title>
<path fill="none" stroke="black" d="M244.263,-221.375C318.533,-208.092 426.616,-188.763 494.961,-176.54"/>
<polygon fill="black" stroke="black" points="495.935,-179.921 505.162,-174.715 494.702,-173.03 495.935,-179.921"/>
</g>
<!-- nashua_cyber_security&#45;&gt;unh_programs -->
<g id="edge10" class="edge"><title>nashua_cyber_security&#45;&gt;unh_programs</title>
<path fill="none" stroke="black" d="M426.719,-222.478C452.102,-211.489 488.185,-195.868 516.329,-183.684"/>
<polygon fill="black" stroke="black" points="517.756,-186.88 525.542,-179.695 514.975,-180.456 517.756,-186.88"/>
</g>
<!-- nashua_software_Development&#45;&gt;unh_programs -->
<g id="edge11" class="edge"><title>nashua_software_Development&#45;&gt;unh_programs</title>
<path fill="none" stroke="black" d="M559.486,-218.813C559.486,-210.789 559.486,-201.047 559.486,-192.069"/>
<polygon fill="black" stroke="black" points="562.986,-192.029 559.486,-182.029 555.986,-192.029 562.986,-192.029"/>
</g>
<!-- nashua_web_Application_Development&#45;&gt;unh_programs -->
<g id="edge12" class="edge"><title>nashua_web_Application_Development&#45;&gt;unh_programs</title>
<path fill="none" stroke="black" d="M742.711,-220.594C704.05,-208.863 651.003,-192.768 611.934,-180.914"/>
<polygon fill="black" stroke="black" points="612.905,-177.551 602.32,-177.997 610.873,-184.249 612.905,-177.551"/>
</g>
<!-- mcc_computer_science&#45;&gt;unh_programs -->
<g id="edge14" class="edge"><title>mcc_computer_science&#45;&gt;unh_programs</title>
<path fill="none" stroke="black" d="M999.362,-222.729C891.216,-208.536 722.63,-186.411 628.677,-174.081"/>
<polygon fill="black" stroke="black" points="629.081,-170.604 618.71,-172.773 628.17,-177.544 629.081,-170.604"/>
</g>
</g>
</svg>
